Coordinates
version=1
nRows=15
nColumns=34
inDegrees=yes

Units are S.I. units (second, meters, Newtons, ...)
If the header above contains a line with 'inDegrees', this indicates whether rotational values are in degrees (yes) or radians (no).

endheader
time	pelvis_tilt	pelvis_list	pelvis_rotation	pelvis_tx	pelvis_ty	pelvis_tz	hip_flexion_r	hip_adduction_r	hip_rotation_r	knee_angle_r	ankle_angle_r	subtalar_angle_r	mtp_angle_r	hip_flexion_l	hip_adduction_l	hip_rotation_l	knee_angle_l	ankle_angle_l	subtalar_angle_l	mtp_angle_l	lumbar_extension	lumbar_bending	lumbar_rotation	arm_flex_r	arm_add_r	arm_rot_r	elbow_flex_r	pro_sup_r	arm_flex_l	arm_add_l	arm_rot_l	elbow_flex_l	pro_sup_l
      3.00000000	     -5.68287776	     -0.71837082	    -62.73317038	      1.36747519	      1.01969561	      4.19079056	     16.44183876	      1.20292814	      0.83806910	     17.53313733	      3.91399877	     -7.77625733	      0.00000000	     -3.50533918	     -2.48120291	     -4.83911965	     51.77703857	     -3.41449621	     -7.65814383	      0.00000000	     -9.34984498	      3.17821001	    -10.87799585	    -13.19291424	    -21.02641780	     20.59850288	     92.55830186	    119.74817918	     11.33275097	    -17.08734456	     26.90810967	    106.45718272	    119.74817918
      3.01666670	     -5.67242114	     -1.09782172	    -63.07497588	      1.37996320	      1.01391169	      4.21303675	     16.53069377	      1.81587460	      1.96671304	     21.10099955	      6.67295320	     -9.27131856	      0.00000000	     -0.49045605	     -3.46990920	     -4.88715666	     58.07820618	     -2.09949360	     -8.67624809	      0.00000000	     -9.64246173	      4.04710087	     -9.51849721	    -10.84125720	    -20.85120972	     21.23181072	     91.80717327	    119.74817918	     10.56059750	    -16.87798101	     27.43725214	    103.78245485	    119.74817918
      3.03333330	     -5.55872512	     -1.72648694	    -63.45069408	      1.39351170	      1.00513275	      4.23864850	     16.47032010	      2.47695690	      2.89389947	     24.84682364	      9.97498555	    -10.20748329	      0.00000000	      2.51718168	     -4.76483497	     -4.57726157	     63.74780119	     -0.26325379	     -9.44474541	      0.00000000	     -9.86967974	      4.86897274	     -7.95468241	     -7.79053933	    -20.40022813	     21.34904514	     91.82667994	    119.74817918	      9.07122437	    -16.57507823	     27.27138152	    100.60958003	    119.74817918
      3.05000000	     -5.45864028	     -2.21615740	    -63.98929116	      1.40717139	      0.99226274	      4.26350836	     16.93326034	      3.08942127	      3.59903295	     29.27308292	     13.43166661	    -10.81057430	      0.00000000	      5.89937986	     -5.64870030	     -3.95868325	     68.75208755	      1.98698290	    -10.19877350	      0.00000000	    -10.18240214	      5.52497533	     -6.89741457	     -5.06938393	    -19.59581355	     21.31411421	     91.81757639	    119.74817918	      7.49076558	    -16.21061078	     26.51210927	     97.11887867	    119.74817918
      3.06666670	     -5.37204068	     -2.59467045	    -64.66625281	      1.42037000	      0.97686628	      4.28815246	     17.56567856	      3.55614863	      4.06215088	     33.72060306	     16.78671878	    -10.78543682	      0.00000000	      9.47785551	     -6.20672353	     -3.30220969	     73.31172348	      4.26228357	    -10.83609888	      0.00000000	    -10.53550725	      6.10159533	     -5.90181629	     -3.16098507	    -18.64162436	     20.62256114	     91.70524521	    119.74817918	      5.77568694	    -15.88284242	     25.78935132	     94.01295011	    119.74817918
      3.08333330	     -5.29793978	     -2.80025785	    -65.24233413	      1.43223370	      0.96219376	      4.31204469	     17.93837312	      3.80391205	      4.24442072	     37.53031647	     19.60466381	    -10.44165965	      0.00000000	     12.49886716	     -6.27520516	     -3.01303556	     76.35411874	      6.44447672	    -11.22931201	      0.00000000	    -10.93933701	      6.54655407	     -4.78023806	     -1.98161623	    -17.83229891	     19.62127943	     92.15049069	    119.74817918	      3.88737381	    -15.59559039	     25.09415920	     91.83212321	    119.74817918
      3.10000000	     -5.30530699	     -2.89778539	    -65.79887472	      1.44254846	      0.94941423	      4.33492394	     17.97589604	      3.99538026	      4.32239134	     40.58206622	     22.00478156	    -10.03224675	      0.00000000	     15.62751753	     -6.08557053	     -2.90658673	     79.13726184	      8.26638028	    -11.60951281	      0.00000000	    -11.41650838	      7.00417706	     -3.96328550	     -1.10244612	    -17.15456665	     18.84945603	     92.84580800	    119.74817918	      2.22146708	    -15.47604149	     24.30776046	     90.61889627	    119.74817918
      3.11666670	     -5.33142954	     -2.98057053	    -66.32771266	      1.45157862	      0.93963665	      4.35905360	     17.47657178	      4.06638004	      4.19122361	     42.71932376	     24.20712420	     -9.15412763	      0.00000000	     19.62253559	     -6.03666653	     -2.49249536	     82.18044234	      9.72286213	    -11.73262213	      0.00000000	    -11.67581457	      6.97191660	     -2.46650092	      0.33916984	    -17.00659726	     18.51366171	     93.50252489	    119.74817918	      0.79513163	    -15.48339546	     23.93947334	     89.83776063	    119.74817918
      3.13333330	     -5.32445744	     -2.94926541	    -66.88348832	      1.46137055	      0.93547230	      4.38149232	     16.18328093	      3.95598604	      4.13835417	     43.30351562	     25.56838480	     -8.40199121	      0.00000000	     23.42078003	     -5.77957731	     -1.74091329	     83.56645621	     10.95256493	    -12.26640975	      0.00000000	    -12.35198999	      7.59566735	     -0.22231216	      2.99020414	    -16.61216028	     18.81087290	     94.95381864	    119.74817918	     -0.68797434	    -15.85403479	     23.69548376	     88.78842659	    119.74817918
      3.15000000	     -5.58724543	     -2.85784391	    -67.34554015	      1.46670659	      0.93668698	      4.40623311	     14.54118465	      4.02301349	      3.68191268	     42.88949524	     26.06452135	     -7.40981126	      0.00000000	     26.62200463	     -5.46557170	     -1.10309128	     83.02703533	     11.93055015	    -12.70070625	      0.00000000	    -12.46787260	      7.96997575	      2.37646709	      5.54133149	    -16.17195601	     19.13002339	     96.21423427	    119.74817918	     -2.47662862	    -16.62758105	     23.00707451	     88.45434876	    119.74817918
      3.16666670	     -5.72882888	     -2.55926807	    -67.32765750	      1.47361958	      0.94637507	      4.43281313	     11.78894275	      3.83513836	      3.16658458	     40.16885041	     24.90007438	     -6.32319676	      0.00000000	     29.03627081	     -5.23736333	     -0.86738218	     78.99130751	     12.21254392	    -13.17233360	      0.00000000	    -12.05360666	      7.94335376	      5.05553179	      7.61897425	    -16.29793754	     19.57787270	     97.54319616	    119.74817918	     -4.66141593	    -17.37427702	     22.17278150	     87.75406205	    119.74817918
      3.18333330	     -5.68029656	     -2.85083059	    -67.03319133	      1.48268645	      0.96429244	      4.46132113	      6.78680526	      3.73090807	      2.77488650	     34.48959005	     21.69657063	     -5.13565057	      0.00000000	     29.42079896	     -4.74302330	     -0.90628727	     72.21663828	     10.85814016	    -13.95281651	      0.00000000	    -12.04955682	      7.70225591	      7.05977885	      9.17466065	    -16.27019140	     20.19259190	     98.84745943	    119.74817918	     -7.66942485	    -18.09152446	     21.17494845	     87.83435684	    119.74817918
      3.20000000	     -5.78239697	     -2.91202768	    -67.05322695	      1.49164320	      0.98306924	      4.48974315	      1.45992892	      3.55910247	      2.20451532	     27.38021724	     16.69483194	     -3.08288322	      0.00000000	     29.41737726	     -3.77723668	     -0.95193852	     66.01539948	      8.73049636	    -14.46780279	      0.00000000	    -11.51453729	      7.56758978	      9.12132103	     10.52300675	    -15.79448298	     20.09602494	    100.49291081	    119.74817918	    -11.05042514	    -18.49447516	     19.95045925	     88.18563554	    119.74817918
      3.21666670	     -5.44774491	     -2.87690486	    -66.97763282	      1.50068443	      0.99701697	      4.51082670	     -2.96607176	      2.91979973	      1.28050999	     21.72851483	     11.82372321	     -1.52334474	      0.00000000	     28.36262244	     -2.72701497	     -1.28295431	     60.18186591	      6.80176371	    -13.72137995	      0.00000000	    -11.33339247	      6.95193536	     10.45995785	     12.24354106	    -15.67689786	     19.98740991	    101.60896195	    119.74817918	    -13.96305439	    -19.26921868	     18.75145829	     89.26139836	    119.74817918
      3.23333330	     -5.21230304	     -2.64328255	    -66.94479661	      1.51166741	      1.01051938	      4.53425287	     -5.83566793	      2.33288709	      0.26444103	     18.48546257	      7.88495237	     -0.02097474	      0.00000000	     27.96919543	     -1.69693815	     -1.66111050	     52.53061072	      5.47533585	    -12.61913192	      0.00000000	    -11.21261851	      6.43401546	     12.26741113	     13.93051820	    -15.26459956	     20.21918893	    102.07668420	    119.74817918	    -16.27461560	    -19.90701118	     17.44460399	     90.68082801	    119.74817918
